<mxfile host="app.diagrams.net" modified="2023-06-22T13:29:22.206Z" agent="Mozilla/5.0 (Windows NT 10.0; Win64; x64) AppleWebKit/537.36 (KHTML, like Gecko) Chrome/114.0.0.0 Safari/537.36 Edg/114.0.1823.51" etag="hSizCge0vp_EeaS8000A" version="21.5.0" type="github">
  <diagram name="Page-1" id="5iQWp9nEiMgHCzsWtpA7">
    <mxGraphModel dx="979" dy="1504" grid="1" gridSize="10" guides="1" tooltips="1" connect="1" arrows="1" fold="1" page="1" pageScale="1" pageWidth="850" pageHeight="1100" math="0" shadow="0">
      <root>
        <mxCell id="0" />
        <mxCell id="1" parent="0" />
        <mxCell id="W0oB0AirR0v-TUXL0bOo-25" style="edgeStyle=orthogonalEdgeStyle;shape=link;rounded=0;orthogonalLoop=1;jettySize=auto;html=1;exitX=0.5;exitY=1;exitDx=0;exitDy=0;entryX=0.5;entryY=0;entryDx=0;entryDy=0;" parent="1" source="QWWNxXXguBcYeccAQLxg-2" target="W0oB0AirR0v-TUXL0bOo-24" edge="1">
          <mxGeometry relative="1" as="geometry">
            <Array as="points">
              <mxPoint x="140" y="180" />
              <mxPoint x="140" y="265" />
              <mxPoint x="175" y="265" />
            </Array>
          </mxGeometry>
        </mxCell>
        <mxCell id="W0oB0AirR0v-TUXL0bOo-35" style="edgeStyle=orthogonalEdgeStyle;shape=link;rounded=0;orthogonalLoop=1;jettySize=auto;html=1;exitX=1;exitY=0.5;exitDx=0;exitDy=0;entryX=0;entryY=0.5;entryDx=0;entryDy=0;" parent="1" source="QWWNxXXguBcYeccAQLxg-2" target="QWWNxXXguBcYeccAQLxg-14" edge="1">
          <mxGeometry relative="1" as="geometry">
            <Array as="points">
              <mxPoint x="300" y="135" />
              <mxPoint x="300" y="110" />
              <mxPoint x="360" y="110" />
            </Array>
          </mxGeometry>
        </mxCell>
        <mxCell id="W0oB0AirR0v-TUXL0bOo-57" style="edgeStyle=orthogonalEdgeStyle;shape=link;rounded=0;orthogonalLoop=1;jettySize=auto;html=1;entryX=0;entryY=0.5;entryDx=0;entryDy=0;" parent="1" target="W0oB0AirR0v-TUXL0bOo-52" edge="1">
          <mxGeometry relative="1" as="geometry">
            <mxPoint x="210" y="100" as="sourcePoint" />
          </mxGeometry>
        </mxCell>
        <mxCell id="CVDuVOqHq0kiJFQAb37Z-1" style="edgeStyle=orthogonalEdgeStyle;shape=link;rounded=0;orthogonalLoop=1;jettySize=auto;html=1;exitX=0.87;exitY=1.001;exitDx=0;exitDy=0;entryX=0.5;entryY=0;entryDx=0;entryDy=0;exitPerimeter=0;" edge="1" parent="1" source="QWWNxXXguBcYeccAQLxg-2" target="W0oB0AirR0v-TUXL0bOo-30">
          <mxGeometry relative="1" as="geometry" />
        </mxCell>
        <mxCell id="QWWNxXXguBcYeccAQLxg-2" value="&lt;font style=&quot;font-size: 18px;&quot;&gt;Nutzer&lt;/font&gt;" style="rounded=1;whiteSpace=wrap;html=1;" parent="1" vertex="1">
          <mxGeometry x="95" y="90" width="115" height="90" as="geometry" />
        </mxCell>
        <mxCell id="QWWNxXXguBcYeccAQLxg-22" style="edgeStyle=orthogonalEdgeStyle;shape=link;rounded=0;orthogonalLoop=1;jettySize=auto;html=1;exitX=0;exitY=0.5;exitDx=0;exitDy=0;entryX=1;entryY=0.5;entryDx=0;entryDy=0;" parent="1" source="QWWNxXXguBcYeccAQLxg-3" target="QWWNxXXguBcYeccAQLxg-14" edge="1">
          <mxGeometry relative="1" as="geometry" />
        </mxCell>
        <mxCell id="QWWNxXXguBcYeccAQLxg-3" value="&lt;b&gt;&lt;font style=&quot;font-size: 17px;&quot;&gt;BeitrÃ¤ge&lt;/font&gt;&lt;/b&gt;" style="rounded=1;whiteSpace=wrap;html=1;" parent="1" vertex="1">
          <mxGeometry x="620" y="125" width="120" height="60" as="geometry" />
        </mxCell>
        <mxCell id="W0oB0AirR0v-TUXL0bOo-39" style="edgeStyle=orthogonalEdgeStyle;shape=link;rounded=0;orthogonalLoop=1;jettySize=auto;html=1;exitX=1;exitY=0.5;exitDx=0;exitDy=0;entryX=0;entryY=0.5;entryDx=0;entryDy=0;" parent="1" source="QWWNxXXguBcYeccAQLxg-4" target="W0oB0AirR0v-TUXL0bOo-38" edge="1">
          <mxGeometry relative="1" as="geometry" />
        </mxCell>
        <mxCell id="QWWNxXXguBcYeccAQLxg-4" value="&lt;font style=&quot;font-size: 17px;&quot;&gt;Kommentare&lt;/font&gt;" style="rounded=1;whiteSpace=wrap;html=1;" parent="1" vertex="1">
          <mxGeometry x="570" y="460" width="120" height="60" as="geometry" />
        </mxCell>
        <mxCell id="a_AqUwiXniWsbhUou0Gr-12" style="edgeStyle=orthogonalEdgeStyle;rounded=0;orthogonalLoop=1;jettySize=auto;html=1;exitX=0.5;exitY=1;exitDx=0;exitDy=0;entryX=0.25;entryY=0;entryDx=0;entryDy=0;" parent="1" source="QWWNxXXguBcYeccAQLxg-5" target="QWWNxXXguBcYeccAQLxg-2" edge="1">
          <mxGeometry relative="1" as="geometry" />
        </mxCell>
        <mxCell id="QWWNxXXguBcYeccAQLxg-5" value="" style="ellipse;whiteSpace=wrap;html=1;" parent="1" vertex="1">
          <mxGeometry x="30" y="10" width="90" height="50" as="geometry" />
        </mxCell>
        <mxCell id="a_AqUwiXniWsbhUou0Gr-15" style="edgeStyle=orthogonalEdgeStyle;rounded=0;orthogonalLoop=1;jettySize=auto;html=1;exitX=0;exitY=0.5;exitDx=0;exitDy=0;entryX=0;entryY=0.75;entryDx=0;entryDy=0;" parent="1" source="QWWNxXXguBcYeccAQLxg-6" target="QWWNxXXguBcYeccAQLxg-2" edge="1">
          <mxGeometry relative="1" as="geometry" />
        </mxCell>
        <mxCell id="QWWNxXXguBcYeccAQLxg-6" value="EMailAdresse" style="ellipse;whiteSpace=wrap;html=1;direction=west;" parent="1" vertex="1">
          <mxGeometry y="150" width="90" height="50" as="geometry" />
        </mxCell>
        <mxCell id="CVDuVOqHq0kiJFQAb37Z-4" style="edgeStyle=orthogonalEdgeStyle;rounded=0;orthogonalLoop=1;jettySize=auto;html=1;exitX=0.5;exitY=0;exitDx=0;exitDy=0;entryX=0;entryY=0.5;entryDx=0;entryDy=0;" edge="1" parent="1" source="QWWNxXXguBcYeccAQLxg-7" target="QWWNxXXguBcYeccAQLxg-2">
          <mxGeometry relative="1" as="geometry" />
        </mxCell>
        <mxCell id="QWWNxXXguBcYeccAQLxg-7" value="Passwort" style="ellipse;whiteSpace=wrap;html=1;" parent="1" vertex="1">
          <mxGeometry x="20" y="338" width="90" height="50" as="geometry" />
        </mxCell>
        <mxCell id="a_AqUwiXniWsbhUou0Gr-16" style="edgeStyle=orthogonalEdgeStyle;rounded=0;orthogonalLoop=1;jettySize=auto;html=1;exitX=0.5;exitY=0;exitDx=0;exitDy=0;entryX=0.111;entryY=1.006;entryDx=0;entryDy=0;entryPerimeter=0;" parent="1" source="QWWNxXXguBcYeccAQLxg-8" target="QWWNxXXguBcYeccAQLxg-2" edge="1">
          <mxGeometry relative="1" as="geometry" />
        </mxCell>
        <mxCell id="QWWNxXXguBcYeccAQLxg-8" value="Registrierdatum" style="ellipse;whiteSpace=wrap;html=1;" parent="1" vertex="1">
          <mxGeometry x="5" y="240" width="90" height="50" as="geometry" />
        </mxCell>
        <mxCell id="a_AqUwiXniWsbhUou0Gr-14" style="edgeStyle=orthogonalEdgeStyle;rounded=0;orthogonalLoop=1;jettySize=auto;html=1;exitX=0.5;exitY=0;exitDx=0;exitDy=0;entryX=0;entryY=0.25;entryDx=0;entryDy=0;" parent="1" source="QWWNxXXguBcYeccAQLxg-11" target="QWWNxXXguBcYeccAQLxg-2" edge="1">
          <mxGeometry relative="1" as="geometry" />
        </mxCell>
        <mxCell id="QWWNxXXguBcYeccAQLxg-11" value="Bild" style="ellipse;whiteSpace=wrap;html=1;direction=south;" parent="1" vertex="1">
          <mxGeometry x="20" y="60" width="50" height="90" as="geometry" />
        </mxCell>
        <mxCell id="QWWNxXXguBcYeccAQLxg-12" value="&lt;u&gt;&lt;b&gt;Nutzer_ID&lt;/b&gt;&lt;/u&gt;" style="text;html=1;align=center;verticalAlign=middle;resizable=0;points=[];autosize=1;strokeColor=none;fillColor=none;" parent="1" vertex="1">
          <mxGeometry x="40" y="20" width="80" height="30" as="geometry" />
        </mxCell>
        <mxCell id="a_AqUwiXniWsbhUou0Gr-13" style="edgeStyle=orthogonalEdgeStyle;rounded=0;orthogonalLoop=1;jettySize=auto;html=1;exitX=0.5;exitY=1;exitDx=0;exitDy=0;" parent="1" source="QWWNxXXguBcYeccAQLxg-13" target="QWWNxXXguBcYeccAQLxg-2" edge="1">
          <mxGeometry relative="1" as="geometry" />
        </mxCell>
        <mxCell id="QWWNxXXguBcYeccAQLxg-13" value="Vorname" style="ellipse;whiteSpace=wrap;html=1;" parent="1" vertex="1">
          <mxGeometry x="120" y="10" width="90" height="50" as="geometry" />
        </mxCell>
        <mxCell id="QWWNxXXguBcYeccAQLxg-14" value="Post&lt;br&gt;------&lt;br&gt;Posted by" style="rhombus;whiteSpace=wrap;html=1;" parent="1" vertex="1">
          <mxGeometry x="360" y="100" width="90" height="100" as="geometry" />
        </mxCell>
        <mxCell id="QWWNxXXguBcYeccAQLxg-19" style="edgeStyle=orthogonalEdgeStyle;shape=link;rounded=0;orthogonalLoop=1;jettySize=auto;html=1;exitX=0.5;exitY=1;exitDx=0;exitDy=0;entryX=0.578;entryY=0.04;entryDx=0;entryDy=0;entryPerimeter=0;" parent="1" source="QWWNxXXguBcYeccAQLxg-15" target="QWWNxXXguBcYeccAQLxg-4" edge="1">
          <mxGeometry relative="1" as="geometry" />
        </mxCell>
        <mxCell id="QWWNxXXguBcYeccAQLxg-20" style="edgeStyle=orthogonalEdgeStyle;shape=link;rounded=0;orthogonalLoop=1;jettySize=auto;html=1;exitX=0.5;exitY=0;exitDx=0;exitDy=0;entryX=0.582;entryY=0.977;entryDx=0;entryDy=0;entryPerimeter=0;" parent="1" source="a_AqUwiXniWsbhUou0Gr-8" target="QWWNxXXguBcYeccAQLxg-3" edge="1">
          <mxGeometry relative="1" as="geometry" />
        </mxCell>
        <mxCell id="QWWNxXXguBcYeccAQLxg-15" value="To comment&lt;br&gt;" style="rhombus;whiteSpace=wrap;html=1;" parent="1" vertex="1">
          <mxGeometry x="600" y="258" width="80" height="80" as="geometry" />
        </mxCell>
        <mxCell id="a_AqUwiXniWsbhUou0Gr-1" value="Kann" style="text;html=1;align=center;verticalAlign=middle;resizable=0;points=[];autosize=1;strokeColor=#2D7600;fillColor=#60a917;fontColor=#ffffff;" parent="1" vertex="1">
          <mxGeometry x="255" y="135" width="50" height="30" as="geometry" />
        </mxCell>
        <mxCell id="a_AqUwiXniWsbhUou0Gr-2" value="Muss" style="text;html=1;align=center;verticalAlign=middle;resizable=0;points=[];autosize=1;strokeColor=#2D7600;fillColor=#60a917;fontColor=#ffffff;" parent="1" vertex="1">
          <mxGeometry x="550" y="160" width="50" height="30" as="geometry" />
        </mxCell>
        <mxCell id="a_AqUwiXniWsbhUou0Gr-5" value="N" style="text;html=1;align=center;verticalAlign=middle;resizable=0;points=[];autosize=1;strokeColor=#2D7600;fillColor=#60a917;fontColor=#ffffff;" parent="1" vertex="1">
          <mxGeometry x="565" y="120" width="30" height="30" as="geometry" />
        </mxCell>
        <mxCell id="a_AqUwiXniWsbhUou0Gr-6" value="1" style="text;html=1;align=center;verticalAlign=middle;resizable=0;points=[];autosize=1;strokeColor=#2D7600;fillColor=#60a917;fontColor=#ffffff;" parent="1" vertex="1">
          <mxGeometry x="265" y="100" width="30" height="30" as="geometry" />
        </mxCell>
        <mxCell id="a_AqUwiXniWsbhUou0Gr-7" value="1" style="text;html=1;align=center;verticalAlign=middle;resizable=0;points=[];autosize=1;strokeColor=#2D7600;fillColor=#60a917;fontColor=#ffffff;" parent="1" vertex="1">
          <mxGeometry x="615" y="185" width="30" height="30" as="geometry" />
        </mxCell>
        <mxCell id="a_AqUwiXniWsbhUou0Gr-9" value="Muss" style="text;html=1;align=center;verticalAlign=middle;resizable=0;points=[];autosize=1;strokeColor=#2D7600;fillColor=#60a917;fontColor=#ffffff;" parent="1" vertex="1">
          <mxGeometry x="640" y="420" width="50" height="30" as="geometry" />
        </mxCell>
        <mxCell id="a_AqUwiXniWsbhUou0Gr-11" value="N" style="text;html=1;align=center;verticalAlign=middle;resizable=0;points=[];autosize=1;strokeColor=#A50040;fillColor=#d80073;fontColor=#ffffff;" parent="1" vertex="1">
          <mxGeometry x="610" y="420" width="30" height="30" as="geometry" />
        </mxCell>
        <mxCell id="W0oB0AirR0v-TUXL0bOo-10" style="edgeStyle=orthogonalEdgeStyle;rounded=0;orthogonalLoop=1;jettySize=auto;html=1;exitX=0;exitY=0.5;exitDx=0;exitDy=0;entryX=0.845;entryY=1.015;entryDx=0;entryDy=0;entryPerimeter=0;" parent="1" source="a_AqUwiXniWsbhUou0Gr-18" target="QWWNxXXguBcYeccAQLxg-3" edge="1">
          <mxGeometry relative="1" as="geometry" />
        </mxCell>
        <mxCell id="a_AqUwiXniWsbhUou0Gr-18" value="Bearbeitungsdatum" style="ellipse;whiteSpace=wrap;html=1;" parent="1" vertex="1">
          <mxGeometry x="760" y="240" width="100" height="50" as="geometry" />
        </mxCell>
        <mxCell id="W0oB0AirR0v-TUXL0bOo-9" style="edgeStyle=orthogonalEdgeStyle;rounded=0;orthogonalLoop=1;jettySize=auto;html=1;exitX=0;exitY=0.5;exitDx=0;exitDy=0;entryX=1;entryY=0.75;entryDx=0;entryDy=0;" parent="1" source="a_AqUwiXniWsbhUou0Gr-19" target="QWWNxXXguBcYeccAQLxg-3" edge="1">
          <mxGeometry relative="1" as="geometry" />
        </mxCell>
        <mxCell id="a_AqUwiXniWsbhUou0Gr-19" value="Erstellungsdatum" style="ellipse;whiteSpace=wrap;html=1;" parent="1" vertex="1">
          <mxGeometry x="760" y="190" width="100" height="50" as="geometry" />
        </mxCell>
        <mxCell id="W0oB0AirR0v-TUXL0bOo-8" style="edgeStyle=orthogonalEdgeStyle;rounded=0;orthogonalLoop=1;jettySize=auto;html=1;exitX=0;exitY=0.5;exitDx=0;exitDy=0;entryX=1;entryY=0.5;entryDx=0;entryDy=0;" parent="1" source="a_AqUwiXniWsbhUou0Gr-20" target="QWWNxXXguBcYeccAQLxg-3" edge="1">
          <mxGeometry relative="1" as="geometry" />
        </mxCell>
        <mxCell id="a_AqUwiXniWsbhUou0Gr-20" value="Privat" style="ellipse;whiteSpace=wrap;html=1;" parent="1" vertex="1">
          <mxGeometry x="770" y="130" width="90" height="50" as="geometry" />
        </mxCell>
        <mxCell id="W0oB0AirR0v-TUXL0bOo-7" style="edgeStyle=orthogonalEdgeStyle;rounded=0;orthogonalLoop=1;jettySize=auto;html=1;exitX=0;exitY=0.5;exitDx=0;exitDy=0;entryX=0.928;entryY=0.015;entryDx=0;entryDy=0;entryPerimeter=0;" parent="1" source="a_AqUwiXniWsbhUou0Gr-21" target="QWWNxXXguBcYeccAQLxg-3" edge="1">
          <mxGeometry relative="1" as="geometry" />
        </mxCell>
        <mxCell id="a_AqUwiXniWsbhUou0Gr-21" value="Status" style="ellipse;whiteSpace=wrap;html=1;" parent="1" vertex="1">
          <mxGeometry x="770" y="68" width="90" height="50" as="geometry" />
        </mxCell>
        <mxCell id="a_AqUwiXniWsbhUou0Gr-27" style="edgeStyle=orthogonalEdgeStyle;rounded=0;orthogonalLoop=1;jettySize=auto;html=1;exitX=0.5;exitY=1;exitDx=0;exitDy=0;entryX=0.082;entryY=0.008;entryDx=0;entryDy=0;entryPerimeter=0;" parent="1" source="a_AqUwiXniWsbhUou0Gr-22" target="QWWNxXXguBcYeccAQLxg-3" edge="1">
          <mxGeometry relative="1" as="geometry" />
        </mxCell>
        <mxCell id="a_AqUwiXniWsbhUou0Gr-22" value="&lt;u&gt;&lt;b&gt;Beitrag_ID&lt;/b&gt;&lt;/u&gt;" style="ellipse;whiteSpace=wrap;html=1;" parent="1" vertex="1">
          <mxGeometry x="525" y="-50" width="90" height="50" as="geometry" />
        </mxCell>
        <mxCell id="W0oB0AirR0v-TUXL0bOo-6" style="edgeStyle=orthogonalEdgeStyle;rounded=0;orthogonalLoop=1;jettySize=auto;html=1;exitX=0.5;exitY=1;exitDx=0;exitDy=0;entryX=0.75;entryY=0;entryDx=0;entryDy=0;" parent="1" source="a_AqUwiXniWsbhUou0Gr-23" target="QWWNxXXguBcYeccAQLxg-3" edge="1">
          <mxGeometry relative="1" as="geometry">
            <Array as="points">
              <mxPoint x="720" y="60" />
              <mxPoint x="720" y="100" />
              <mxPoint x="660" y="100" />
            </Array>
          </mxGeometry>
        </mxCell>
        <mxCell id="a_AqUwiXniWsbhUou0Gr-23" value="Inhalt" style="ellipse;whiteSpace=wrap;html=1;" parent="1" vertex="1">
          <mxGeometry x="830" y="-40" width="90" height="50" as="geometry" />
        </mxCell>
        <mxCell id="W0oB0AirR0v-TUXL0bOo-3" style="edgeStyle=orthogonalEdgeStyle;rounded=0;orthogonalLoop=1;jettySize=auto;html=1;exitX=0.5;exitY=1;exitDx=0;exitDy=0;entryX=0.415;entryY=0.015;entryDx=0;entryDy=0;entryPerimeter=0;" parent="1" source="a_AqUwiXniWsbhUou0Gr-24" target="QWWNxXXguBcYeccAQLxg-3" edge="1">
          <mxGeometry relative="1" as="geometry" />
        </mxCell>
        <mxCell id="a_AqUwiXniWsbhUou0Gr-24" value="Titel" style="ellipse;whiteSpace=wrap;html=1;" parent="1" vertex="1">
          <mxGeometry x="715" y="-50" width="90" height="50" as="geometry" />
        </mxCell>
        <mxCell id="W0oB0AirR0v-TUXL0bOo-2" style="edgeStyle=orthogonalEdgeStyle;rounded=0;orthogonalLoop=1;jettySize=auto;html=1;exitX=1;exitY=1;exitDx=0;exitDy=0;entryX=0.185;entryY=0.022;entryDx=0;entryDy=0;entryPerimeter=0;" parent="1" source="a_AqUwiXniWsbhUou0Gr-25" target="QWWNxXXguBcYeccAQLxg-3" edge="1">
          <mxGeometry relative="1" as="geometry" />
        </mxCell>
        <mxCell id="a_AqUwiXniWsbhUou0Gr-25" value="Nutzer_ID" style="ellipse;whiteSpace=wrap;html=1;" parent="1" vertex="1">
          <mxGeometry x="615" y="-40" width="90" height="50" as="geometry" />
        </mxCell>
        <mxCell id="W0oB0AirR0v-TUXL0bOo-19" style="edgeStyle=orthogonalEdgeStyle;rounded=0;orthogonalLoop=1;jettySize=auto;html=1;exitX=0;exitY=0.5;exitDx=0;exitDy=0;entryX=0.5;entryY=1;entryDx=0;entryDy=0;" parent="1" source="W0oB0AirR0v-TUXL0bOo-11" target="QWWNxXXguBcYeccAQLxg-4" edge="1">
          <mxGeometry relative="1" as="geometry" />
        </mxCell>
        <mxCell id="W0oB0AirR0v-TUXL0bOo-11" value="Inhalt" style="ellipse;whiteSpace=wrap;html=1;" parent="1" vertex="1">
          <mxGeometry x="750" y="650" width="90" height="50" as="geometry" />
        </mxCell>
        <mxCell id="W0oB0AirR0v-TUXL0bOo-17" style="edgeStyle=orthogonalEdgeStyle;rounded=0;orthogonalLoop=1;jettySize=auto;html=1;exitX=0.5;exitY=0;exitDx=0;exitDy=0;entryX=0.128;entryY=0.989;entryDx=0;entryDy=0;entryPerimeter=0;" parent="1" source="W0oB0AirR0v-TUXL0bOo-12" target="QWWNxXXguBcYeccAQLxg-4" edge="1">
          <mxGeometry relative="1" as="geometry" />
        </mxCell>
        <mxCell id="W0oB0AirR0v-TUXL0bOo-12" value="Bearbeitungsdatum" style="ellipse;whiteSpace=wrap;html=1;" parent="1" vertex="1">
          <mxGeometry x="550" y="600" width="120" height="50" as="geometry" />
        </mxCell>
        <mxCell id="W0oB0AirR0v-TUXL0bOo-18" style="edgeStyle=orthogonalEdgeStyle;rounded=0;orthogonalLoop=1;jettySize=auto;html=1;exitX=0;exitY=0;exitDx=0;exitDy=0;entryX=0.25;entryY=1;entryDx=0;entryDy=0;" parent="1" source="W0oB0AirR0v-TUXL0bOo-13" target="QWWNxXXguBcYeccAQLxg-4" edge="1">
          <mxGeometry relative="1" as="geometry">
            <Array as="points">
              <mxPoint x="695" y="540" />
              <mxPoint x="600" y="540" />
            </Array>
          </mxGeometry>
        </mxCell>
        <mxCell id="W0oB0AirR0v-TUXL0bOo-13" value="Erstellungsdatum" style="ellipse;whiteSpace=wrap;html=1;" parent="1" vertex="1">
          <mxGeometry x="680" y="600" width="100" height="50" as="geometry" />
        </mxCell>
        <mxCell id="W0oB0AirR0v-TUXL0bOo-20" style="edgeStyle=orthogonalEdgeStyle;rounded=0;orthogonalLoop=1;jettySize=auto;html=1;exitX=0;exitY=0.5;exitDx=0;exitDy=0;entryX=0.75;entryY=1;entryDx=0;entryDy=0;" parent="1" source="W0oB0AirR0v-TUXL0bOo-14" target="QWWNxXXguBcYeccAQLxg-4" edge="1">
          <mxGeometry relative="1" as="geometry" />
        </mxCell>
        <mxCell id="W0oB0AirR0v-TUXL0bOo-14" value="Beitrag_ID" style="ellipse;whiteSpace=wrap;html=1;" parent="1" vertex="1">
          <mxGeometry x="760" y="533" width="90" height="50" as="geometry" />
        </mxCell>
        <mxCell id="CVDuVOqHq0kiJFQAb37Z-3" style="edgeStyle=orthogonalEdgeStyle;rounded=0;orthogonalLoop=1;jettySize=auto;html=1;exitX=0;exitY=0.5;exitDx=0;exitDy=0;entryX=0.75;entryY=0;entryDx=0;entryDy=0;" edge="1" parent="1" source="W0oB0AirR0v-TUXL0bOo-15" target="QWWNxXXguBcYeccAQLxg-4">
          <mxGeometry relative="1" as="geometry" />
        </mxCell>
        <mxCell id="W0oB0AirR0v-TUXL0bOo-15" value="Nutzer_ID" style="ellipse;whiteSpace=wrap;html=1;" parent="1" vertex="1">
          <mxGeometry x="765" y="400" width="90" height="50" as="geometry" />
        </mxCell>
        <mxCell id="W0oB0AirR0v-TUXL0bOo-23" style="edgeStyle=orthogonalEdgeStyle;rounded=0;orthogonalLoop=1;jettySize=auto;html=1;exitX=0;exitY=0.5;exitDx=0;exitDy=0;entryX=1;entryY=0.25;entryDx=0;entryDy=0;" parent="1" source="W0oB0AirR0v-TUXL0bOo-16" target="QWWNxXXguBcYeccAQLxg-4" edge="1">
          <mxGeometry relative="1" as="geometry">
            <Array as="points">
              <mxPoint x="710" y="405" />
              <mxPoint x="710" y="465" />
            </Array>
          </mxGeometry>
        </mxCell>
        <mxCell id="W0oB0AirR0v-TUXL0bOo-16" value="&lt;b style=&quot;&quot;&gt;&lt;u&gt;Kommentar_ID&lt;/u&gt;&lt;/b&gt;" style="ellipse;whiteSpace=wrap;html=1;" parent="1" vertex="1">
          <mxGeometry x="760" y="338" width="90" height="50" as="geometry" />
        </mxCell>
        <mxCell id="W0oB0AirR0v-TUXL0bOo-24" value="Nutzer_Freund" style="rhombus;whiteSpace=wrap;html=1;" parent="1" vertex="1">
          <mxGeometry x="130" y="350" width="90" height="80" as="geometry" />
        </mxCell>
        <mxCell id="W0oB0AirR0v-TUXL0bOo-26" value="N" style="text;html=1;align=center;verticalAlign=middle;resizable=0;points=[];autosize=1;strokeColor=#2D7600;fillColor=#60a917;fontColor=#ffffff;" parent="1" vertex="1">
          <mxGeometry x="150" y="210" width="30" height="30" as="geometry" />
        </mxCell>
        <mxCell id="W0oB0AirR0v-TUXL0bOo-27" value="M" style="text;html=1;align=center;verticalAlign=middle;resizable=0;points=[];autosize=1;strokeColor=#2D7600;fillColor=#60a917;fontColor=#ffffff;" parent="1" vertex="1">
          <mxGeometry x="190" y="320" width="30" height="30" as="geometry" />
        </mxCell>
        <mxCell id="W0oB0AirR0v-TUXL0bOo-29" value="Kann" style="text;html=1;align=center;verticalAlign=middle;resizable=0;points=[];autosize=1;strokeColor=#2D7600;fillColor=#60a917;fontColor=#ffffff;" parent="1" vertex="1">
          <mxGeometry x="110" y="310" width="50" height="30" as="geometry" />
        </mxCell>
        <mxCell id="W0oB0AirR0v-TUXL0bOo-32" style="edgeStyle=orthogonalEdgeStyle;shape=link;rounded=0;orthogonalLoop=1;jettySize=auto;html=1;exitX=0.5;exitY=1;exitDx=0;exitDy=0;entryX=0;entryY=0.75;entryDx=0;entryDy=0;" parent="1" source="W0oB0AirR0v-TUXL0bOo-30" target="QWWNxXXguBcYeccAQLxg-4" edge="1">
          <mxGeometry relative="1" as="geometry" />
        </mxCell>
        <mxCell id="W0oB0AirR0v-TUXL0bOo-30" value="write" style="rhombus;whiteSpace=wrap;html=1;" parent="1" vertex="1">
          <mxGeometry x="360" y="358" width="80" height="80" as="geometry" />
        </mxCell>
        <mxCell id="W0oB0AirR0v-TUXL0bOo-34" value="N" style="text;html=1;align=center;verticalAlign=middle;resizable=0;points=[];autosize=1;strokeColor=#2D7600;fillColor=#60a917;fontColor=#ffffff;" parent="1" vertex="1">
          <mxGeometry x="530" y="470" width="30" height="30" as="geometry" />
        </mxCell>
        <mxCell id="W0oB0AirR0v-TUXL0bOo-36" value="Kann" style="text;html=1;align=center;verticalAlign=middle;resizable=0;points=[];autosize=1;strokeColor=#2D7600;fillColor=#60a917;fontColor=#ffffff;" parent="1" vertex="1">
          <mxGeometry x="265" y="280" width="50" height="30" as="geometry" />
        </mxCell>
        <mxCell id="W0oB0AirR0v-TUXL0bOo-37" value="Muss" style="text;html=1;align=center;verticalAlign=middle;resizable=0;points=[];autosize=1;strokeColor=#2D7600;fillColor=#60a917;fontColor=#ffffff;" parent="1" vertex="1">
          <mxGeometry x="515" y="510" width="50" height="30" as="geometry" />
        </mxCell>
        <mxCell id="W0oB0AirR0v-TUXL0bOo-38" value="Reply&lt;br&gt;COMMENTS" style="rhombus;whiteSpace=wrap;html=1;" parent="1" vertex="1">
          <mxGeometry x="925" y="453" width="90" height="80" as="geometry" />
        </mxCell>
        <mxCell id="W0oB0AirR0v-TUXL0bOo-40" value="Muss" style="text;html=1;align=center;verticalAlign=middle;resizable=0;points=[];autosize=1;strokeColor=#2D7600;fillColor=#60a917;fontColor=#ffffff;" parent="1" vertex="1">
          <mxGeometry x="875" y="498" width="50" height="30" as="geometry" />
        </mxCell>
        <mxCell id="W0oB0AirR0v-TUXL0bOo-41" value="Kann" style="text;html=1;align=center;verticalAlign=middle;resizable=0;points=[];autosize=1;strokeColor=#2D7600;fillColor=#60a917;fontColor=#ffffff;" parent="1" vertex="1">
          <mxGeometry x="730" y="498" width="50" height="30" as="geometry" />
        </mxCell>
        <mxCell id="W0oB0AirR0v-TUXL0bOo-43" value="1" style="text;html=1;align=center;verticalAlign=middle;resizable=0;points=[];autosize=1;strokeColor=#2D7600;fillColor=#60a917;fontColor=#ffffff;" parent="1" vertex="1">
          <mxGeometry x="735" y="453" width="30" height="30" as="geometry" />
        </mxCell>
        <mxCell id="W0oB0AirR0v-TUXL0bOo-44" value="N" style="text;html=1;align=center;verticalAlign=middle;resizable=0;points=[];autosize=1;strokeColor=#2D7600;fillColor=#60a917;fontColor=#ffffff;" parent="1" vertex="1">
          <mxGeometry x="895" y="458" width="30" height="30" as="geometry" />
        </mxCell>
        <mxCell id="W0oB0AirR0v-TUXL0bOo-50" value="Kann" style="text;html=1;align=center;verticalAlign=middle;resizable=0;points=[];autosize=1;strokeColor=#A50040;fillColor=#d80073;fontColor=#ffffff;" parent="1" vertex="1">
          <mxGeometry x="80" y="210" width="50" height="30" as="geometry" />
        </mxCell>
        <mxCell id="W0oB0AirR0v-TUXL0bOo-51" value="1" style="text;html=1;align=center;verticalAlign=middle;resizable=0;points=[];autosize=1;strokeColor=#A50040;fillColor=#d80073;fontColor=#ffffff;" parent="1" vertex="1">
          <mxGeometry x="275" y="228" width="30" height="30" as="geometry" />
        </mxCell>
        <mxCell id="W0oB0AirR0v-TUXL0bOo-58" style="edgeStyle=orthogonalEdgeStyle;shape=link;rounded=0;orthogonalLoop=1;jettySize=auto;html=1;exitX=1;exitY=0.5;exitDx=0;exitDy=0;entryX=0;entryY=0.25;entryDx=0;entryDy=0;" parent="1" source="W0oB0AirR0v-TUXL0bOo-52" target="QWWNxXXguBcYeccAQLxg-3" edge="1">
          <mxGeometry relative="1" as="geometry" />
        </mxCell>
        <mxCell id="W0oB0AirR0v-TUXL0bOo-52" value="anteilen" style="rhombus;whiteSpace=wrap;html=1;" parent="1" vertex="1">
          <mxGeometry x="310" y="-20" width="80" height="80" as="geometry" />
        </mxCell>
        <mxCell id="W0oB0AirR0v-TUXL0bOo-60" value="N" style="text;html=1;align=center;verticalAlign=middle;resizable=0;points=[];autosize=1;strokeColor=#3700CC;fillColor=#6a00ff;fontColor=#ffffff;" parent="1" vertex="1">
          <mxGeometry x="225" y="50" width="30" height="30" as="geometry" />
        </mxCell>
        <mxCell id="W0oB0AirR0v-TUXL0bOo-61" value="Kann" style="text;html=1;align=center;verticalAlign=middle;resizable=0;points=[];autosize=1;strokeColor=#6F0000;fillColor=#a20025;fontColor=#ffffff;" parent="1" vertex="1">
          <mxGeometry x="265" y="50" width="50" height="30" as="geometry" />
        </mxCell>
        <mxCell id="W0oB0AirR0v-TUXL0bOo-62" value="Kann" style="text;html=1;align=center;verticalAlign=middle;resizable=0;points=[];autosize=1;strokeColor=#6F0000;fillColor=#a20025;fontColor=#ffffff;" parent="1" vertex="1">
          <mxGeometry x="440" y="80" width="50" height="30" as="geometry" />
        </mxCell>
        <mxCell id="W0oB0AirR0v-TUXL0bOo-63" value="M" style="text;html=1;align=center;verticalAlign=middle;resizable=0;points=[];autosize=1;strokeColor=#A50040;fillColor=#d80073;fontColor=#ffffff;" parent="1" vertex="1">
          <mxGeometry x="515" y="78" width="30" height="30" as="geometry" />
        </mxCell>
        <mxCell id="piHlISA11RS0WhPtRcwC-2" style="edgeStyle=orthogonalEdgeStyle;rounded=0;orthogonalLoop=1;jettySize=auto;html=1;exitX=0.5;exitY=0;exitDx=0;exitDy=0;entryX=0.5;entryY=1;entryDx=0;entryDy=0;" parent="1" source="piHlISA11RS0WhPtRcwC-1" target="W0oB0AirR0v-TUXL0bOo-24" edge="1">
          <mxGeometry relative="1" as="geometry" />
        </mxCell>
        <mxCell id="piHlISA11RS0WhPtRcwC-1" value="&lt;font style=&quot;font-size: 12px;&quot;&gt;&lt;b&gt;&lt;u&gt;Freund_ID&lt;/u&gt;&lt;/b&gt;&lt;/font&gt;" style="ellipse;whiteSpace=wrap;html=1;" parent="1" vertex="1">
          <mxGeometry x="130" y="460" width="90" height="50" as="geometry" />
        </mxCell>
        <mxCell id="CVDuVOqHq0kiJFQAb37Z-2" value="" style="edgeStyle=orthogonalEdgeStyle;shape=link;rounded=0;orthogonalLoop=1;jettySize=auto;html=1;exitX=0.5;exitY=0;exitDx=0;exitDy=0;entryX=0.25;entryY=1;entryDx=0;entryDy=0;" edge="1" parent="1" source="QWWNxXXguBcYeccAQLxg-15" target="QWWNxXXguBcYeccAQLxg-3">
          <mxGeometry relative="1" as="geometry">
            <mxPoint x="640" y="258" as="sourcePoint" />
            <mxPoint x="690" y="184" as="targetPoint" />
          </mxGeometry>
        </mxCell>
        <mxCell id="a_AqUwiXniWsbhUou0Gr-8" value="Kann" style="text;html=1;align=center;verticalAlign=middle;resizable=0;points=[];autosize=1;strokeColor=#2D7600;fillColor=#60a917;fontColor=#ffffff;" parent="1" vertex="1">
          <mxGeometry x="655" y="185" width="50" height="30" as="geometry" />
        </mxCell>
      </root>
    </mxGraphModel>
  </diagram>
</mxfile>
